<svg width="44" height="70" xmlns="http://www.w3.org/2000/svg"><g fill="#FFF" fill-rule="nonzero"><path d="M1.852 28.272c.85-.508 1.975-.283 2.53.5l.019.027h1.49v1.931H4.352a1.803 1.803 0 01-.513.46c-.859.514-2 .278-2.549-.527-.548-.806-.296-1.877.562-2.39zm41.81.46c.588.78.39 1.861-.442 2.413-.832.551-1.984.365-2.572-.415H39.11v-1.932h1.492c.128-.188.295-.352.49-.48.831-.552 1.983-.366 2.57.414zm-28.782.131v1.918h-2.662v-1.918h2.662zm8.95 0v1.918h-2.66v-1.918h2.66zm8.952 0v1.918H30.12v-1.918h2.662zM4.918 66.72c.014.185.059.366.13.536l.02.042c.106.263.48.522.645.821.118.212.157.701.17.943l.006.136V70H4.785v-3.28h.133zm0-4.646c.015.209.066.413.15.604.106.274.48.54.645.85.137.254.167.897.174 1.078l.002.041v2.254l-.133.001c0-.106-.22-.327-.327-.602a9.805 9.805 0 00-.472-.848 2.128 2.128 0 01-.17-.742v-.051h-.002v-2.582l.133-.003zm0-4.647c.014.192.059.38.13.556l.02.044c.106.274.48.54.645.851.137.255.167.898.174 1.078l.002.041v2.256l-.133.003c0-.108-.22-.329-.327-.602a9.655 9.655 0 00-.472-.851 2.124 2.124 0 01-.17-.74v-.052h-.002v-2.584h.133zm0-4.373c.015.208.066.412.15.602.106.273.48.539.645.85.137.253.167.898.174 1.079l.002.041v2.254l-.133.003c0-.107-.22-.329-.327-.603-.11-.273-.304-.537-.472-.851a2.124 2.124 0 01-.17-.74v-.052h-.002v-2.583h.133zm0-4.646c.015.208.066.412.15.601.106.274.48.538.645.851.137.253.167.897.174 1.077l.002.043v2.253l-.133.003c0-.107-.22-.328-.327-.602a9.514 9.514 0 00-.472-.851 2.123 2.123 0 01-.17-.74v-.052h-.002V48.41l.133-.002zm0-4.464c.015.208.066.412.15.601.106.273.48.538.645.85.137.254.167.898.174 1.079l.002.042v2.253l-.133.003c0-.107-.22-.329-.327-.602a9.6 9.6 0 00-.472-.85 2.125 2.125 0 01-.17-.741v-.052h-.002v-2.581l.133-.002zm0-4.556c.014.193.058.382.13.559l.02.044c.106.274.48.538.645.852.137.253.167.898.174 1.078l.002.042v2.254h-.133c0-.104-.22-.325-.327-.599a9.502 9.502 0 00-.472-.852 2.123 2.123 0 01-.17-.74v-.051h-.002V39.39l.133-.003zm0-4.464c.014.192.058.38.13.558l.02.044c.106.274.48.538.645.849.137.256.167.9.174 1.08l.002.043v2.255h-.133c0-.104-.22-.326-.327-.6a9.615 9.615 0 00-.472-.851 2.13 2.13 0 01-.17-.74v-.051h-.002v-2.585l.133-.002zm.97-3.098v3.28h-.132c0-.098-.222-.308-.328-.566a9.131 9.131 0 00-.47-.803c-.114-.2-.152-.655-.166-.899l-.007-.157v-.855h1.103zM40.215 66.72V70H39.11v-.802l.005-.117c.012-.235.05-.744.169-.962.165-.3.538-.558.648-.82.083-.183.134-.379.151-.579h.13zm-.13-4.646l.13.003v2.582a2.107 2.107 0 01-.173.793c-.167.31-.539.578-.648.848-.083.19-.135.394-.152.602h-.13v-2.254l.004-.118c.012-.243.049-.776.169-1.002.165-.31.538-.576.648-.85.083-.191.134-.395.151-.604zm.13-4.647v2.584a2.102 2.102 0 01-.173.792c-.167.312-.539.577-.648.851-.084.19-.135.394-.152.602l-.13-.003v-2.256l.004-.117c.012-.242.049-.775.169-1.002.165-.31.538-.577.648-.851.083-.19.134-.392.151-.6h.13zm0-4.373v2.583a2.097 2.097 0 01-.173.792c-.167.314-.539.578-.648.85a1.9 1.9 0 00-.152.604l-.13-.003v-2.254l.004-.118c.012-.242.049-.777.169-1.002.165-.311.538-.577.648-.85.083-.19.134-.394.151-.602h.13zm-.13-4.646l.13.002v2.581a2.1 2.1 0 01-.173.792c-.167.311-.539.577-.648.85-.083.191-.135.395-.152.603l-.13-.003V50.98l.004-.118c.012-.242.049-.776.169-1.001.165-.313.538-.577.648-.85.083-.19.134-.394.151-.602zm0-4.464l.13.002v2.581a2.097 2.097 0 01-.173.792c-.167.31-.539.578-.648.85-.083.19-.135.395-.152.603l-.13-.003v-2.254l.004-.118c.012-.242.049-.776.169-1.001.165-.313.538-.578.648-.85.083-.19.134-.394.151-.602zm0-4.556l.13.003v2.584a2.1 2.1 0 01-.173.79c-.167.313-.539.579-.648.853a1.89 1.89 0 00-.152.599h-.13v-2.254l.004-.118c.012-.243.049-.777.169-1.002.165-.314.538-.578.648-.852.083-.19.134-.394.151-.603zm0-4.464l.13.002v2.585a2.101 2.101 0 01-.173.79c-.167.312-.539.579-.648.852-.083.19-.134.392-.152.6h-.13v-2.255l.004-.119c.012-.242.049-.776.169-1.004.165-.311.538-.575.648-.849.083-.19.134-.394.151-.602zm.13-3.098v.855l-.004.084c-.01.213-.045.75-.17.972-.166.294-.54.546-.647.803-.083.179-.134.37-.152.566h-.13v-3.28h1.103z"/><path d="M11.295 28.911v3.477h4.48V28.91h4.481v3.477h4.482V28.91h4.482v3.477h4.48V28.91h4.487v37.976c-1.268.425-4.451 1.109-7.79 1.109-3.636 0-6.919-.748-8.443-1.038-1.525-.287-3.869-.92-8.5-.92-3.333 0-6.258 1.45-6.64 1.647V28.91h4.48zm-.17 5.936H7.866v3.213l11.362 11.175L7.866 60.401v3.273h3.197l11.428-11.23 11.419 11.23h3.223v-3.246l-11.376-11.19 11.376-11.176v-3.215h-3.257l-11.383 11.18-11.368-11.18zM22.183 24.091c9.868 0 15.953 2.185 15.953 2.185a.341.341 0 01.245.468.38.38 0 01-.41.253s-6.694-1.874-15.788-1.874h-.002c-9.092 0-15.786 1.874-15.786 1.874a.374.374 0 01-.407-.254l-.018-.05a.342.342 0 01.26-.418s6.087-2.184 15.95-2.184h.003zM22.14 0c.011.778.178 1.274.495 2.053l.055.133c.352.855.503.797 1.053 1.988.55 1.192.655 2.256.655 3.724 0 1.354-.753 2.92-.874 3.161l-.016.032.06.046c1.123-.936 1.457-2.477 1.457-2.477a3.726 3.726 0 011.46-.296h.06c2.19 0 3.452 1.64 3.452 3.116 0 1.669-1.471 3.197-3.26 3.007a2.738 2.738 0 01-.779-.174.039.039 0 01-.027-.021c-.012-.023-.006-.054.018-.066.794-.231.667-1.106.667-1.106 0-.482-.577-1.251-1.374-1.251-.724 0-1.482.483-1.482 1.269 0 1.545 1.595 1.806 1.818 1.835l.026.003-.018.25c-1.254.338-1.267 1.302-1.091 1.825l.005.016c.18.517.958 1.447 2.677 1.447 1.716 0 2.095-1.145 2.095-1.145.314-1.104-.78-1.825-.979-1.946l-.03-.019.046-.209c1.927-.22 2.68-2.047 2.788-2.338l.014-.038.245.038c.014.653.188 1.293.508 1.865.325.544.787.995 1.342 1.309l.05.028-.054.213h-.024c-.259.017-1.387.294-1.387 1.362 0 1.106 1.41 1.867 2.556 1.867 1.147 0 2.006-.603 2.006-1.492 0-.773-.688-1.206-.87-1.307l-.044-.023.042-.188c.288.029.579.008.86-.062l.055-.015a1.732 1.732 0 001.31-1.673v-.034c0-.473-.539-1.205-1.31-1.205a1.283 1.283 0 00-1.308 1.22c0 .558.15.75.172.776l.003.003a.065.065 0 01.012.051c-.006.01-.015.016-.027.015-1.844-.172-2.775-1.636-2.775-3.084 0-1.436 1.196-2.758 2.967-2.784h.054a3.865 3.865 0 012.79 1.134 7.077 7.077 0 00.312 3.311c.008.02.026.05.06.041.037-.01.028-.052.028-.052-.237-2.487.505-4.086.61-4.298l.012-.024c.743-1.465 1.767-2.083 2.98-3.323l.17-.177c.92-.955 1.223-1.36 1.307-1.481l.027-.043.21.114c-1.888 3.732-2.623 6.104-3.844 9.441a54.085 54.085 0 00-1.827 6.225l-.052.226-2.905.766 2.52 2.084c-.11.48 0 1.488.015 1.63l.002.016s.008.09-.069.072l-.012-.004c-.324-.112-6.621-2.439-15.47-2.528l-.274-.002h-.17C12.74 22.871 6.24 25.34 6.16 25.361c-.06.015-.068-.037-.069-.06v-.012s.132-1.098.024-1.623l-.005-.023 2.518-2.084-2.905-.766a54.19 54.19 0 00-1.88-6.45l-.151-.417C2.586 10.872 1.843 8.578.118 5.136L0 4.9l.213-.115s.198.35 1.405 1.598l.037.038c1.22 1.262 2.252 1.876 3.004 3.313l.05.098c.103.21.83 1.777.616 4.218l-.008.084c0 .01 0 .04.03.048.035.01.056-.022.06-.04a7.028 7.028 0 00.313-3.312 3.871 3.871 0 012.737-1.135h.052c1.801 0 3.023 1.335 3.023 2.785 0 1.448-.933 2.912-2.776 3.084a.032.032 0 01-.028-.015c-.006-.014 0-.03.007-.041l.006-.01c.012-.013.172-.197.172-.78a1.28 1.28 0 00-1.277-1.22h-.03c-.76 0-1.29.713-1.305 1.187v.02a1.724 1.724 0 001.273 1.698l.033.009c.28.077.571.104.861.081l.054-.005.045.188-.028.014c-.151.081-.89.517-.89 1.316 0 .889.86 1.492 2.006 1.492 1.15 0 2.557-.76 2.557-1.866 0-1.08-1.153-1.352-1.393-1.363h-.015l-.059-.213a3.663 3.663 0 001.394-1.337c.31-.554.484-1.172.506-1.803l.001-.061.246-.04.014.04c.107.287.843 2.077 2.727 2.33l.062.007.048.21-.045.027c-.23.142-1.251.842-.978 1.901l.011.04c.023.064.43 1.141 2.097 1.141 1.7 0 2.479-.912 2.67-1.431l.005-.016c.179-.514.18-1.48-1.046-1.83l-.037-.01-.019-.251.042-.005c.275-.039 1.802-.321 1.802-1.833 0-.786-.759-1.269-1.482-1.269-.785 0-1.358.749-1.373 1.232v.02s-.128.874.668 1.106c.01.009.019.018.022.03a.047.047 0 01-.035.058c-.25.096-.512.156-.778.174-1.788.19-3.262-1.338-3.262-3.007 0-1.46 1.239-3.083 3.388-3.115h.066a3.723 3.723 0 011.518.295l.016.063c.075.295.447 1.56 1.409 2.386l.033.028.059-.046-.042-.083c-.175-.36-.848-1.83-.848-3.11 0-1.468.105-2.532.655-3.724l.046-.099c.516-1.09.668-1.059 1.008-1.889l.054-.133c.306-.757.475-1.247.495-1.989L21.863 0h.277zm-5.755 20.203c-.086-.567-1.27-.859-2.64-.651-1.37.204-2.41.833-2.323 1.4.088.566 1.268.858 2.64.653l.083-.013c1.331-.22 2.327-.834 2.24-1.389zm13.874-.651l-.083-.012c-1.336-.184-2.471.107-2.558.663-.088.566.952 1.193 2.324 1.402 1.37.205 2.552-.088 2.638-.652.089-.568-.953-1.197-2.32-1.401zm-8.252-1.16l-2.69 1.626 2.69 1.625 2.689-1.625-2.69-1.625zM8.292 11.91h-.04c-.947.02-1.603.745-1.724.89l-.02.025.085.072c.168-.203.775-.472 1.142-.472 1.96 0 2.044 1.72 2.047 1.958v.027l.007-.006c.044-.036.266-.255.266-.936 0-.747-.674-1.54-1.727-1.558h-.036zm27.448 0c-1.077 0-1.763.802-1.763 1.558s.274.942.274.942v-.045c.007-.296.132-1.94 2.046-1.94.36 0 .946.257 1.13.459l.012.013.086-.072-.039-.046c-.16-.186-.818-.87-1.746-.87zm-18.182-1.323c-.87 0-1.907.764-1.907 1.734s.717 1.315.717 1.315l-.043-.242a5.893 5.893 0 01-.078-.562c0-1.22 1.378-1.835 2.045-1.835.398.004.79.099 1.145.276l.046.024.066-.095c-.699-.495-1.122-.615-1.99-.615zm8.917 0c-.853 0-1.277.116-1.953.588l-.039.027.066.095a2.646 2.646 0 011.19-.3c.668 0 2.047.616 2.047 1.835v.022c-.01.176-.124.782-.124.782l.019-.01c.113-.063.698-.43.698-1.306 0-.969-1.035-1.733-1.904-1.733zm-4.47-6.272h-.008c-.427.95-.594 2.146-.594 3.187 0 1.023.195 2.045.293 2.638l.006.036c.064.4.095.893.109 1.165l.009.203h.363c.015-.457.055-.914.119-1.368l.09-.543c.096-.587.208-1.359.208-2.13 0-1.018-.16-2.184-.567-3.122l-.028-.066z"/></g></svg>