<svg viewBox="0 0 128 128" xmlns="http://www.w3.org/2000/svg">
  <defs>
    <style>
      path { display:none; }
      path:target { display: inline; }
    </style>
  </defs>
  <path id="arrow-left" d="M64 120C33.072 120 8 94.928 8 64S33.072 8 64 8s56 25.072 56 56-25.072 56-56 56zm-2.766-22.766a5 5 0 007.071 0l2.829-2.828a5 5 0 000-7.072L54.8 71.001H95A5 5 0 00100 66v-4a5 5 0 00-5-5H54.799l16.335-16.334a5 5 0 000-7.072l-2.829-2.828a5 5 0 00-7.071 0L31.536 60.464a5 5 0 000 7.072z" fill="#500778"/>
  <path id="arrow-right" d="M64 8c30.928 0 56 25.072 56 56s-25.072 56-56 56S8 94.928 8 64 33.072 8 64 8zm2.766 22.766a5 5 0 00-7.071 0l-2.829 2.828a5 5 0 000 7.072L73.2 56.999H33A5 5 0 0028 62v4a5 5 0 005 5h40.201L56.866 87.333a5 5 0 000 7.072l2.829 2.828a5 5 0 007.071 0l29.698-29.698a5 5 0 000-7.072z" fill="#500778"/>
  <path id="alert-red" d="M64 8c30.928 0 56 25.072 56 56s-25.072 56-56 56S8 94.928 8 64 33.072 8 64 8zm0 79a9 9 0 100 18 9 9 0 000-18zm5.656-64H58.344a5 5 0 00-4.988 5.333l3.333 50A5 5 0 0061.678 83h4.644a5 5 0 004.99-4.667l3.332-50A5 5 0 0069.656 23z" fill="#D91E1E"/>
  <path id="alert-white" d="M64 8c30.928 0 56 25.072 56 56s-25.072 56-56 56S8 94.928 8 64 33.072 8 64 8zm0 79a9 9 0 100 18 9 9 0 000-18zm5.656-64H58.344a5 5 0 00-4.988 5.333l3.333 50A5 5 0 0061.678 83h4.644a5 5 0 004.99-4.667l3.332-50A5 5 0 0069.656 23z" fill="#FFFFFF"/>
  <path id="minus" d="M64 8c30.928 0 56 25.072 56 56s-25.072 56-56 56S8 94.928 8 64 33.072 8 64 8zm31 49H33a5 5 0 00-5 5v4a5 5 0 005 5h62a5 5 0 005-5v-4a5 5 0 00-5-5z" fill="#500778"/>
  <path id="plus" d="M64 8c30.928 0 56 25.072 56 56s-25.072 56-56 56S8 94.928 8 64 33.072 8 64 8zm2 20h-4a5 5 0 00-5 5l-.001 24H33a5 5 0 00-5 5v4a5 5 0 005 5h23.999L57 95a5 5 0 005 5h4a5 5 0 005-5V71h24a5 5 0 005-5v-4a5 5 0 00-5-5H71V33a5 5 0 00-5-5z" fill="#500778"/>
</svg>
