<svg viewBox="0 0 128 128" xmlns="http://www.w3.org/2000/svg">
  <defs>
    <style>
      path { display:none; }
      path:target { display: inline; }
    </style>
  </defs>
  <path id="arrow-left" d="M64 120C33.072 120 8 94.928 8 64S33.072 8 64 8s56 25.072 56 56-25.072 56-56 56zm-2.766-22.766a5 5 0 007.071 0l2.829-2.828a5 5 0 000-7.072L54.8 71.001H95A5 5 0 00100 66v-4a5 5 0 00-5-5H54.799l16.335-16.334a5 5 0 000-7.072l-2.829-2.828a5 5 0 00-7.071 0L31.536 60.464a5 5 0 000 7.072z" fill="#500778"/>
  <path id="arrow-right" d="M64 8c30.928 0 56 25.072 56 56s-25.072 56-56 56S8 94.928 8 64 33.072 8 64 8zm2.766 22.766a5 5 0 00-7.071 0l-2.829 2.828a5 5 0 000 7.072L73.2 56.999H33A5 5 0 0028 62v4a5 5 0 005 5h40.201L56.866 87.333a5 5 0 000 7.072l2.829 2.828a5 5 0 007.071 0l29.698-29.698a5 5 0 000-7.072z" fill="#500778"/>
  <path id="alert-red" d="M64 8c30.928 0 56 25.072 56 56s-25.072 56-56 56S8 94.928 8 64 33.072 8 64 8zm0 79a9 9 0 100 18 9 9 0 000-18zm5.656-64H58.344a5 5 0 00-4.988 5.333l3.333 50A5 5 0 0061.678 83h4.644a5 5 0 004.99-4.667l3.332-50A5 5 0 0069.656 23z" fill="#D91E1E"/>
  <path id="alert-white" d="M64 8c30.928 0 56 25.072 56 56s-25.072 56-56 56S8 94.928 8 64 33.072 8 64 8zm0 79a9 9 0 100 18 9 9 0 000-18zm5.656-64H58.344a5 5 0 00-4.988 5.333l3.333 50A5 5 0 0061.678 83h4.644a5 5 0 004.99-4.667l3.332-50A5 5 0 0069.656 23z" fill="#FFFFFF"/>
  <path id="minus" d="M64 8c30.928 0 56 25.072 56 56s-25.072 56-56 56S8 94.928 8 64 33.072 8 64 8zm31 49H33a5 5 0 00-5 5v4a5 5 0 005 5h62a5 5 0 005-5v-4a5 5 0 00-5-5z" fill="#500778"/>
  <path id="plus" d="M64 8c30.928 0 56 25.072 56 56s-25.072 56-56 56S8 94.928 8 64 33.072 8 64 8zm2 20h-4a5 5 0 00-5 5l-.001 24H33a5 5 0 00-5 5v4a5 5 0 005 5h23.999L57 95a5 5 0 005 5h4a5 5 0 005-5V71h24a5 5 0 005-5v-4a5 5 0 00-5-5H71V33a5 5 0 00-5-5z" fill="#500778"/>
  <path id="email" d="M117 18c3.038 0 5.788 1.231 7.778 3.222a10.964 10.964 0 013.217 7.429L128 29v70c0 3.038-1.231 5.788-3.222 7.778a10.964 10.964 0 01-7.429 3.217L117 110H11a10.966 10.966 0 01-7.778-3.222A10.964 10.964 0 01.005 99.35L0 99V29c0-3.038 1.231-5.788 3.222-7.778a10.964 10.964 0 017.429-3.217L11 18h106zm1 33.822L69 80.113a10 10 0 01-10 0l-49-28.29V99a1 1 0 00.883.993L11 100h106a1 1 0 00.993-.883L118 99V51.822zM117 28H11a1 1 0 00-.993.883L10 29v11.276l54 31.177 54-31.177V29a1 1 0 00-1-1z" fill="#1C1C1C"/>
  <path id="chevron-left" d="M59.686 119.154l1.415-1.414a6 6 0 000-8.485L15.846 64l45.255-45.255a6 6 0 000-8.485l-1.415-1.414a6 6 0 00-8.485 0L3.118 56.929c-3.905 3.905-3.905 10.237 0 14.142L51.2 119.154a6 6 0 008.485 0z" fill="#500778"/>
  <path id="chevron-right" d="M68.36 119.154l-1.414-1.414a6 6 0 010-8.485L112.201 64 66.946 18.745a6 6 0 010-8.485l1.414-1.414a6 6 0 018.486 0l48.083 48.083c3.905 3.905 3.905 10.237 0 14.142l-48.083 48.083a6 6 0 01-8.486 0z" fill="#500778"/>
  <path id="tick" d="M103.757 43.243L52.243 94.757a6 6 0 01-8.486 0L24.243 75.243a6 6 0 010-8.486l1.414-1.414a6 6 0 018.485 0L48 79.201l45.858-45.858a6 6 0 018.485 0l1.414 1.414a6 6 0 010 8.486z" fill="#FFF"/>
  <path id="purple-dot" d="M64 22c-23 0-42 19-42 42s19 42 42 42 42-19 42-42-19-42-42-42z" fill="#500778"/>
  <path id="red-dot" d="M64 22c-23 0-42 19-42 42s19 42 42 42 42-19 42-42-19-42-42-42z" fill="#D91E1E"/>
  <path id="select" d="M59.666 93.467L26.311 35.493A5 5 0 0130.645 28h66.71a5 5 0 014.334 7.493L68.334 93.467a5 5 0 01-8.668 0z" fill="#500778"/>
  <path id="share-whatsapp" d="M103.225 24.275C92.75 13.775 78.8 8 63.975 8c-30.6 0-55.5 24.9-55.5 55.5a55.56 55.56 0 007.4 27.75L8 120l29.425-7.725a55.331 55.331 0 0026.525 6.75h.025c30.575 0 56.025-24.9 56.025-55.5 0-14.825-6.3-28.75-16.775-39.25zM64.237 110c-8.32 0-16.465-2.218-23.557-6.404l-1.68-.997-17.492 4.56 4.662-16.97-1.103-1.744C20.431 81.12 18 72.672 18 63.975 18 38.633 38.75 18 64.262 18c12.355 0 23.958 4.784 32.679 13.481C105.662 40.178 111.025 51.715 111 64c0 25.367-21.277 46-46.763 46zm24.951-34.306c-1.366-.709-8.148-4.101-9.415-4.557-1.267-.48-2.186-.709-3.106.71-.919 1.417-3.552 4.556-4.372 5.518-.795.936-1.615 1.063-2.981.354-8.099-4.126-13.415-7.367-18.756-16.708-1.416-2.48 1.416-2.303 4.05-7.67.446-.937.223-1.747-.125-2.456-.348-.709-3.105-7.62-4.248-10.43-1.118-2.733-2.26-2.354-3.105-2.404C46.335 38 45.415 38 44.496 38c-.919 0-2.41.354-3.677 1.747C39.553 41.164 36 44.557 36 51.467c0 6.912 4.944 13.595 5.614 14.531.696.937 9.714 15.113 23.551 21.214 8.745 3.848 12.173 4.177 16.546 3.519 2.658-.405 8.148-3.392 9.29-6.683 1.143-3.291 1.143-6.101.796-6.683-.323-.633-1.242-.988-2.609-1.671z" fill="#FFF" fill-rule="nonzero"/>
  <path id="share-facebook" d="M64 8c30.928 0 56 25.072 56 56 0 27.979-20.519 51.165-47.33 55.333V80.625h13.074l2.49-16.288H72.67v-10.57c0-4.456 2.174-8.8 9.144-8.8h7.075V31.1l-1.329-.205-1.175-.162-1.459-.181-1.103-.122-1.189-.116-.937-.08-.97-.073-.66-.042-.67-.037-.675-.031-.682-.024-.684-.017-.684-.009L76.33 30c-12.817 0-21.194 7.801-21.194 21.923v12.414H40.89v16.288h14.247v38.677C28.42 115.054 8 91.912 8 64 8 33.072 33.072 8 64 8z" fill="#FFF"/>
  <path id="share-twitter" d="M107.693 41.512c.07.984.07 1.968.07 2.953 0 30.023-22.684 64.617-64.144 64.617-12.773 0-24.638-3.727-34.619-10.195 1.815.21 3.56.28 5.444.28 10.54 0 20.241-3.585 27.989-9.702-9.911-.211-18.217-6.75-21.079-15.75 1.396.21 2.792.351 4.258.351a23.68 23.68 0 005.933-.773c-10.33-2.11-18.078-11.25-18.078-22.29v-.28a22.58 22.58 0 0010.19 2.882 22.74 22.74 0 01-10.05-18.914c0-4.218 1.116-8.086 3.07-11.46 11.098 13.78 27.78 22.78 46.485 23.765-.349-1.688-.558-3.445-.558-5.203 0-12.516 10.05-22.711 22.544-22.711a22.414 22.414 0 0116.473 7.172 44.188 44.188 0 0014.308-5.484 22.62 22.62 0 01-9.911 12.515c4.537-.492 8.934-1.758 12.982-3.515a48.658 48.658 0 01-11.307 11.742z" fill="#FFF" fill-rule="nonzero"/>
  <path id="share-email" d="M117.878 49.737c.853-.678 2.122-.043 2.122 1.029V95.5c0 5.797-4.703 10.5-10.5 10.5h-91C12.703 106 8 101.297 8 95.5V50.788c0-1.094 1.247-1.707 2.122-1.029 4.9 3.807 11.397 8.641 33.71 24.85C48.446 77.98 56.233 85.066 64 85.022c7.81.066 15.75-7.175 20.19-10.413 22.313-16.209 28.788-21.065 33.688-24.871zM64 78c5.075.088 12.381-6.388 16.056-9.056 29.028-21.066 31.238-22.903 37.931-28.153A5.235 5.235 0 00120 36.656V32.5c0-5.797-4.703-10.5-10.5-10.5h-91C12.703 22 8 26.703 8 32.5v4.156c0 1.619.744 3.128 2.012 4.135 6.694 5.228 8.904 7.087 37.932 28.153C51.619 71.612 58.925 78.088 64 78z" fill="#FFF" fill-rule="nonzero"/>
</svg>
