<svg viewBox="0 0 40 56" xmlns="http://www.w3.org/2000/svg">
  <g fill-rule="nonzero" fill="none">
    <path d="M39.55 25.291a2.89 2.89 0 00-.426-1.528 2.94 2.94 0 00-1.173-1.082 2.985 2.985 0 00-3.08.227c.066-1.042.184-2.982.21-3.178a1.29 1.29 0 00-.25-.963l-.448-.6.33-.234h.065l.224-.156a1.3 1.3 0 00.528-.834 61.849 61.849 0 013.309-11.72 1.287 1.287 0 00-.134-1.214 1.314 1.314 0 00-1.092-.57c-.187 0-.371.04-.54.116a7.66 7.66 0 00-3.56 3.699l-.554-.274a4.492 4.492 0 00-1.318-.22 4.19 4.19 0 00-2.29.675 4.115 4.115 0 00-1.534 1.812 3.863 3.863 0 00-.224 1.588.68.68 0 00-.224 0h-.237c.134-.38.2-.782.197-1.185a3.677 3.677 0 00-.483-1.832A3.734 3.734 0 0025.51 6.46a4.149 4.149 0 00-2.202-.69h-.54A8.844 8.844 0 0020.71.377a1.327 1.327 0 00-1.845 0 8.844 8.844 0 00-2.057 5.352h-.54a4.148 4.148 0 00-2.202.69 3.733 3.733 0 00-1.333 1.353 3.678 3.678 0 00-.487 1.825c-.003.403.064.804.198 1.185H11.983a3.864 3.864 0 00-.224-1.536 3.712 3.712 0 00-1.1-1.556 3.777 3.777 0 00-1.734-.815 3.787 3.787 0 00-.95-.117 4.493 4.493 0 00-1.318.221l-.514.196a7.57 7.57 0 00-3.625-3.712 1.332 1.332 0 00-.541-.117 1.33 1.33 0 00-.714.21c-.213.136-.382.33-.486.558v.144c-.13.302-.139.641-.026.95A60.498 60.498 0 014.034 16.93a1.3 1.3 0 00.527.82l.62.444-.317.43-.105.13v.104c-.21.276-.3.622-.25.963 0 .13.131 2.11.184 3.165a2.95 2.95 0 00-1.714-.547 2.98 2.98 0 00-1.804.902 2.905 2.905 0 00-.223 3.75 2.97 2.97 0 001.684 1.104V56h34.278V28.195a2.979 2.979 0 001.879-.955 2.91 2.91 0 00.758-1.949z" fill="#FFF"/>
    <path d="M33.619 22.14a72.057 72.057 0 00-27.686 0c0 .416.079.846.105 1.302a72.399 72.399 0 0127.475 0c.027-.43.066-.847.106-1.302z" fill="#000"/>
    <path d="M33.737 19.535l-1.239-1.654 1.398-1.003h.066l.224-.156a61.924 61.924 0 013.388-12.06 6.534 6.534 0 00-3.19 3.712c-.125.367-.226.74-.304 1.12a2.373 2.373 0 00-.62-.818 2.409 2.409 0 00-.91-.484 2.828 2.828 0 00-1.594-.079c-.541.087-1.037.35-1.41.746a2.412 2.412 0 00-.267 2.977c.296.455.738.8 1.255.979.228.085.468.133.712.143a1.22 1.22 0 01-.29-1.302c.067-.192.182-.364.335-.5a1.218 1.218 0 011.146-.26c.197.056.377.16.523.304l.079.065.079.091a2.363 2.363 0 01-.159 2.97c-1.318 1.966-3.717.898-4.614 0a4.344 4.344 0 01-1.12-2.214c-1.86 3.008-6.592 3.503-6.5 0 0-.508.171-1.81.962-2.28h.066l.172-.065a1.2 1.2 0 011.127.137 1.175 1.175 0 01.494 1.01c.004.234-.063.465-.192.662-.13.197-.315.352-.533.444.233.083.478.127.725.13a2.518 2.518 0 001.762-.72 2.459 2.459 0 00.73-1.74 2.4 2.4 0 00-.329-1.211 2.438 2.438 0 00-.897-.886 2.858 2.858 0 00-1.516-.482 2.453 2.453 0 00-1.899.677 6.65 6.65 0 00.08-1.276 8.254 8.254 0 00-1.701-5.21 8.253 8.253 0 00-1.688 5.21c.001.388.037.776.106 1.159a2.443 2.443 0 00-1.899-.678 2.819 2.819 0 00-1.516.482 2.438 2.438 0 00-.897.887 2.4 2.4 0 00-.14 2.152c.126.299.31.57.54.799.468.461 1.102.72 1.763.72.247-.004.492-.048.725-.13a1.196 1.196 0 01-.533-.444 1.175 1.175 0 01-.192-.663 1.163 1.163 0 01.23-.705c.152-.204.368-.354.613-.428a.72.72 0 01.383-.09c.135.005.268.031.395.077h.224a2.9 2.9 0 01.95 2.28c.092 3.542-4.641 3.047-6.487 0v.064a4.341 4.341 0 01-1.147 2.332c-.896.898-3.296 1.966-4.614 0a2.363 2.363 0 01-.092-2.97l.092-.156c.11-.093.235-.168.37-.221.32-.112.671-.097.98.041.31.139.553.39.68.7a1.21 1.21 0 01-.29 1.303c.244-.01.484-.058.712-.143a2.46 2.46 0 001.255-.979 2.412 2.412 0 00-.267-2.977 2.475 2.475 0 00-1.41-.745 2.828 2.828 0 00-1.595.078c-.335.094-.646.26-.91.484a2.373 2.373 0 00-.62.818 9.454 9.454 0 00-.303-1.12 6.532 6.532 0 00-3.216-3.79 62.139 62.139 0 013.361 11.917l1.688 1.21-1.107 1.485-.106.13c0 .222.119 1.069.145 1.303a65.377 65.377 0 0127.686 0c0-.43.08-.86.132-1.302l-.04.143zm-20.883-1.302a1.33 1.33 0 01-.732-.22 1.305 1.305 0 01-.486-.584 1.287 1.287 0 01.286-1.42 1.323 1.323 0 011.437-.282c.24.099.447.265.591.48a1.291 1.291 0 01-.164 1.644 1.326 1.326 0 01-.932.382zm6.922-14c.637.84.93 1.886.817 2.93a12.005 12.005 0 01-.817 4.558 12.546 12.546 0 01-.818-4.558 4.118 4.118 0 01.818-2.93zm0 13.843l-1.912-1.888 1.912-1.862 1.911 1.888-1.911 1.862zm6.921.13a1.33 1.33 0 01-.732-.219 1.306 1.306 0 01-.486-.584 1.288 1.288 0 01.286-1.42 1.323 1.323 0 011.437-.282c.24.099.446.265.591.48.145.214.223.466.223.723a1.288 1.288 0 01-.377.938 1.32 1.32 0 01-.942.39v-.026zM30.323 24.744v2.605h-5.274v-2.605h-2.636v2.605h-5.274v-2.605h-2.637v2.605H9.23v-2.605H6.592v29.94h26.367v-29.94zM5.274 24.744h-.805a1.636 1.636 0 00-.754-.795 1.666 1.666 0 00-2.035.42 1.616 1.616 0 000 2.053 1.666 1.666 0 002.035.42c.337-.172.603-.453.754-.796h.805a.387.387 0 00.369-.238c.019-.049.028-.1.026-.152v-.521a.373.373 0 00-.242-.365.387.387 0 00-.153-.026zM4.878 28.651h-.527a.393.393 0 00-.396.39v1.824c0 .216.177.39.396.39h.527a.393.393 0 00.396-.39v-1.823a.393.393 0 00-.396-.39zM4.878 32.558h-.527a.393.393 0 00-.396.39v1.824c0 .216.177.39.396.39h.527a.393.393 0 00.396-.39V32.95a.393.393 0 00-.396-.39zM4.878 36.465h-.527a.393.393 0 00-.396.39v1.824c0 .216.177.39.396.39h.527a.393.393 0 00.396-.39v-1.823a.393.393 0 00-.396-.39zM4.878 40.372h-.527a.393.393 0 00-.396.39v1.824c0 .216.177.39.396.39h.527a.393.393 0 00.396-.39v-1.823a.393.393 0 00-.396-.39zM4.878 44.28h-.527a.393.393 0 00-.396.39v1.823c0 .216.177.39.396.39h.527a.393.393 0 00.396-.39V44.67a.393.393 0 00-.396-.39zM4.878 48.186h-.527a.393.393 0 00-.396.39V50.4c0 .216.177.39.396.39h.527a.393.393 0 00.396-.39v-1.823a.393.393 0 00-.396-.391zM4.878 52.093h-.527a.393.393 0 00-.396.39v1.824c0 .216.177.39.396.39h.527a.393.393 0 00.396-.39v-1.823a.393.393 0 00-.396-.391zM35.2 28.651h-.527a.393.393 0 00-.395.39v1.824c0 .216.177.39.395.39h.528a.393.393 0 00.395-.39v-1.823a.393.393 0 00-.395-.39zM35.2 32.558h-.527a.393.393 0 00-.395.39v1.824c0 .216.177.39.395.39h.528a.393.393 0 00.395-.39V32.95a.393.393 0 00-.395-.39zM35.2 36.465h-.527a.393.393 0 00-.395.39v1.824c0 .216.177.39.395.39h.528a.393.393 0 00.395-.39v-1.823a.393.393 0 00-.395-.39zM35.2 40.372h-.527a.393.393 0 00-.395.39v1.824c0 .216.177.39.395.39h.528a.393.393 0 00.395-.39v-1.823a.393.393 0 00-.395-.39zM35.2 44.28h-.527a.393.393 0 00-.395.39v1.823c0 .216.177.39.395.39h.528a.393.393 0 00.395-.39V44.67a.393.393 0 00-.395-.39zM35.2 48.186h-.527a.393.393 0 00-.395.39V50.4c0 .216.177.39.395.39h.528a.393.393 0 00.395-.39v-1.823a.393.393 0 00-.395-.391zM35.2 52.093h-.527a.393.393 0 00-.395.39v1.824c0 .216.177.39.395.39h.528a.393.393 0 00.395-.39v-1.823a.393.393 0 00-.395-.391z" fill="#000"/>
    <path d="M12.525 24.744h-1.978v.651c0 .173.07.339.193.46.124.123.291.192.466.192h1.319a.663.663 0 00.466-.191.647.647 0 00.193-.46v-.652h-.66zM20.435 24.744h-1.978v.651c0 .173.07.339.193.46.124.123.292.192.466.192h1.319a.663.663 0 00.466-.191.647.647 0 00.193-.46v-.652h-.66zM28.345 24.744h-1.977v.651c0 .173.07.339.193.46.123.123.291.192.466.192h1.318a.663.663 0 00.466-.191.647.647 0 00.193-.46v-.652h-.659zM36.585 23.767c-.32 0-.633.093-.9.266a1.62 1.62 0 00-.603.711h-.738a.387.387 0 00-.37.24.375.375 0 00-.026.15v.522a.375.375 0 00.242.364.387.387 0 00.154.027h.738c.12.269.31.501.551.672a1.66 1.66 0 002.34-.435 1.614 1.614 0 00-.542-2.29 1.664 1.664 0 00-.846-.227z" fill="#000"/>
    <path fill="#FFF" d="M22.57 40.36l9.071 8.946v2.787h-2.755l-9.11-8.986-9.11 8.973H7.923v-2.8l9.058-8.934-9.07-8.934v-2.76h2.781l9.084 8.946 9.083-8.947h2.782v2.761z"/>
  </g>
</svg>
